<svg width="32" height="32" viewBox="0 0 32 32" fill="none" xmlns="http://www.w3.org/2000/svg">
<path d="M26 3H9C7.93913 3 6.92172 3.42143 6.17157 4.17157C5.42143 4.92172 5 5.93913 5 7V28C5 28.2652 5.10536 28.5196 5.29289 28.7071C5.48043 28.8946 5.73478 29 6 29H24C24.2652 29 24.5196 28.8946 24.7071 28.7071C24.8946 28.5196 25 28.2652 25 28C25 27.7348 24.8946 27.4804 24.7071 27.2929C24.5196 27.1054 24.2652 27 24 27H7C7 26.4696 7.21071 25.9609 7.58579 25.5858C7.96086 25.2107 8.46957 25 9 25H26C26.2652 25 26.5196 24.8946 26.7071 24.7071C26.8946 24.5196 27 24.2652 27 24V4C27 3.73478 26.8946 3.48043 26.7071 3.29289C26.5196 3.10536 26.2652 3 26 3ZM25 23H9C8.29768 22.999 7.60763 23.1841 7 23.5362V7C7 6.46957 7.21071 5.96086 7.58579 5.58579C7.96086 5.21071 8.46957 5 9 5H25V23Z" fill="#50B2C0"/>
<path d="M23.8189 11.8407C23.7507 11.6307 23.6224 11.4454 23.4497 11.3079C23.277 11.1704 23.0677 11.0867 22.8478 11.0672L18.672 10.7072L17.0351 6.81475C16.9499 6.6105 16.8061 6.43604 16.622 6.31332C16.4378 6.1906 16.2214 6.12512 16.0001 6.12512C15.7788 6.12512 15.5624 6.1906 15.3783 6.31332C15.1941 6.43604 15.0503 6.6105 14.9651 6.81475L13.3332 10.7072L9.15238 11.0694C8.93162 11.0879 8.72126 11.1712 8.54766 11.3089C8.37407 11.4465 8.24497 11.6323 8.17656 11.843C8.10815 12.0537 8.10348 12.2799 8.16312 12.4933C8.22276 12.7066 8.34407 12.8976 8.51183 13.0423L11.6836 15.814L10.733 19.9301C10.6827 20.1455 10.6971 20.371 10.7742 20.5783C10.8514 20.7856 10.988 20.9655 11.1668 21.0956C11.3457 21.2257 11.559 21.3002 11.7799 21.3098C12.0009 21.3193 12.2198 21.2635 12.4093 21.1494L15.9952 18.9697L19.5889 21.1494C19.7783 21.2635 19.9972 21.3193 20.2182 21.3098C20.4392 21.3002 20.6524 21.2257 20.8313 21.0956C21.0102 20.9655 21.1467 20.7856 21.2239 20.5783C21.301 20.371 21.3154 20.1455 21.2651 19.9301L20.3152 15.8098L23.4863 13.0423C23.654 12.8971 23.7751 12.7056 23.8343 12.4918C23.8934 12.278 23.8881 12.0515 23.8189 11.8407ZM22.7487 12.1922L19.5776 14.9597C19.4233 15.094 19.3085 15.2678 19.2455 15.4624C19.1826 15.6571 19.1739 15.8652 19.2204 16.0644L20.1732 20.1875L16.5823 18.0078C16.4071 17.9011 16.2059 17.8447 16.0008 17.8447C15.7957 17.8447 15.5945 17.9011 15.4193 18.0078L11.8334 20.1875L12.7798 16.0672C12.8263 15.868 12.8176 15.6599 12.7547 15.4652C12.6918 15.2706 12.5769 15.0968 12.4226 14.9626L9.25011 12.1965C9.24986 12.1944 9.24986 12.1922 9.25011 12.1901L13.4295 11.8287C13.6335 11.8107 13.8288 11.7374 13.9942 11.6166C14.1596 11.4958 14.2889 11.3321 14.3682 11.1432L16.0001 7.25561L17.6314 11.1432C17.7106 11.3321 17.8399 11.4958 18.0053 11.6166C18.1707 11.7374 18.366 11.8107 18.57 11.8287L22.7501 12.1901C22.7501 12.1901 22.7501 12.1944 22.7501 12.1951L22.7487 12.1922Z" fill="#50B2C0"/>
</svg>
